<svg width="327" height="102" viewBox="0 0 327 102" fill="none" xmlns="http://www.w3.org/2000/svg">
<path d="M1 51C1 78.6142 23.3858 101 51 101C78.6142 101 101 78.6142 101 51C101 23.3858 78.6142 1 51 1C23.3858 1 1 23.3858 1 51Z" fill="#23C4CC" stroke="#23C4CC"/>
<path d="M103 91C80.9086 91 63 73.0914 63 51C63 28.9086 80.9086 11 103 11C125.091 11 143 28.9086 143 51C143 73.0914 125.091 91 103 91Z" fill="#7EEFAF" stroke="white" stroke-width="10"/>
<path d="M88 51C88 59.2843 94.7157 66 103 66C111.284 66 118 59.2843 118 51C118 42.7157 111.284 36 103 36C94.7157 36 88 42.7157 88 51Z" fill="white" stroke="white"/>
<path d="M167.32 79V29.608H187.984C192.976 29.608 196.744 30.952 199.288 33.64C201.832 36.28 203.104 39.64 203.104 43.72C203.104 46.696 202.36 49.288 200.872 51.496C199.384 53.704 197.368 55.336 194.824 56.392L204.328 79H194.32L186.112 58.408H176.536V79H167.32ZM176.536 50.272H186.688C188.944 50.272 190.576 49.696 191.584 48.544C192.64 47.392 193.168 45.784 193.168 43.72C193.168 41.896 192.664 40.456 191.656 39.4C190.696 38.344 189.16 37.816 187.048 37.816H176.536V50.272ZM209.497 79V41.128H218.137V79H209.497ZM209.425 35.224V26.944H218.137V35.224H209.425ZM237.112 79.864C233.368 79.864 230.392 78.28 228.184 75.112C226.024 71.896 224.944 66.856 224.944 59.992C224.944 53.128 226.048 48.136 228.256 45.016C230.512 41.848 233.32 40.264 236.68 40.264C238.6 40.264 240.304 40.672 241.792 41.488C243.328 42.304 244.432 43.48 245.104 45.016H245.464V26.944H254.104V79H246.904L246.04 74.32H245.68C244.768 76.144 243.568 77.536 242.08 78.496C240.592 79.408 238.936 79.864 237.112 79.864ZM239.704 72.016C241.816 72.016 243.304 71.104 244.168 69.28C245.032 67.456 245.464 64.84 245.464 61.432V58.84C245.464 55.432 245.032 52.792 244.168 50.92C243.304 49.048 241.816 48.112 239.704 48.112C237.64 48.112 236.152 49.024 235.24 50.848C234.376 52.672 233.944 55.288 233.944 58.696V61.432C233.944 64.84 234.376 67.456 235.24 69.28C236.152 71.104 237.64 72.016 239.704 72.016ZM275.127 79.864C270.279 79.864 266.583 78.28 264.039 75.112C261.543 71.896 260.295 66.88 260.295 60.064C260.295 53.248 261.543 48.256 264.039 45.088C266.583 41.872 270.183 40.264 274.839 40.264C279.399 40.264 282.807 41.872 285.063 45.088C287.367 48.256 288.519 53.248 288.519 60.064V62.224H269.295C269.343 65.584 269.799 68.2 270.663 70.072C271.527 71.896 273.015 72.808 275.127 72.808C276.615 72.808 277.791 72.184 278.655 70.936C279.519 69.64 279.951 67.864 279.951 65.608H288.519C288.519 70.456 287.247 74.056 284.703 76.408C282.159 78.712 278.967 79.864 275.127 79.864ZM269.367 55.96H279.447C279.447 53.224 279.063 51.112 278.295 49.624C277.575 48.088 276.423 47.32 274.839 47.32C273.015 47.32 271.671 48.088 270.807 49.624C269.991 51.112 269.511 53.224 269.367 55.96ZM308.97 79.864C303.93 79.864 300.138 78.28 297.594 75.112C295.098 71.896 293.85 66.88 293.85 60.064C293.85 53.248 295.098 48.256 297.594 45.088C300.138 41.872 303.93 40.264 308.97 40.264C314.01 40.264 317.778 41.872 320.274 45.088C322.818 48.256 324.09 53.248 324.09 60.064C324.09 66.88 322.818 71.896 320.274 75.112C317.778 78.28 314.01 79.864 308.97 79.864ZM308.97 72.592C311.226 72.592 312.81 71.656 313.722 69.784C314.634 67.864 315.09 65.08 315.09 61.432V58.696C315.09 55.048 314.634 52.288 313.722 50.416C312.81 48.496 311.226 47.536 308.97 47.536C306.762 47.536 305.178 48.496 304.218 50.416C303.306 52.288 302.85 55.048 302.85 58.696V61.432C302.85 65.08 303.306 67.864 304.218 69.784C305.178 71.656 306.762 72.592 308.97 72.592Z" fill="#212831"/>
</svg>
